PathFileType	4	(X/Y/Z)	C:/Users/beibeiliu/ov580/test_trc/User3\sequence.33_training_dense_right.trc
DataRate	CameraRate	NumFrames	NumMarkers	Units	OrigDataRate	OrigDataStartFrame	OrigNumFrames
120	120	14	19	mm	120	110	219
Frame#	Time	ThumbCMC			ThumbMCP			ThumbIP			ThumbTip			IndexMCP			IndexPIP			IndexTip			MiddleMCP			MiddlePIP			MiddleTip			RingMCP			RingPIP			RingTip			PinkyMCP			PinkyPIP			PinkyTip			BackHand1			BackHand2			BackHand3	
		X0	Y0	Z0	X1	Y1	Z1	X2	Y2	Z2	X3	Y3	Z3	X4	Y4	Z4	X5	Y5	Z5	X6	Y6	Z6	X7	Y7	Z7	X8	Y8	Z8	X9	Y9	Z9	X10	Y10	Z10	X11	Y11	Z11	X12	Y12	Z12	X13	Y13	Z13	X14	Y14	Z14	X15	Y15	Z15	X16	Y16	Z16	X17	Y17	Z17	X18	Y18	Z18	
109	0.908333	59.6967	4.29377	18.3863	29.9293	-19.9608	4.4542	26.2314	-49.6063	-3.66411	38.9587	-73.4063	-3.50024	53.1278	-41.29	-38.2359	30.6127	-53.4523	-15.3144	45.8564	-28.7398	1.63927	60.6964	-59.4886	-30.9009	41.4559	-66.3749	-7.07691	61.8038	-35.9901	15.0423	74.8309	-66.9093	-15.5649	57.9129	-69.4045	9.37073	69.328	-38.1885	25.9874	88.008	-73.4596	-1.26706	68.3866	-68.0679	17.1581	79.0461	-40.9565	33.5148	113.591	-28.2414	-8.49998	121.736	-8.01475	17.0216	93.8684	4.95937	-2.96013	
110	0.916667	59.6871	7.31007	13.9931	29.0125	-12.2714	7.24605	22.0013	-41.3389	-0.501776	32.0556	-64.0434	0.262437	48.0284	-38.9209	-37.2115	28.4634	-50.0649	-14.8178	45.5877	-23.8612	3.81426	57.7684	-54.9711	-28.8497	37.6781	-61.7946	-3.29652	54.9748	-34.0621	16.7092	67.7048	-64.2547	-13.6763	51.3656	-62.4235	14.0071	67.8418	-34.7264	27.7565	79.7491	-70.0753	0.238104	63.8701	-62.0088	20.9889	76.9763	-37.0195	30.9137	112.252	-31.5621	-8.13608	122.911	-12.7241	16.3467	95.603	5.45486	-4.25308	
111	0.925	63.1111	11.1505	14.193	33.879	-10.0894	5.03987	21.7327	-37.0222	-1.93166	31.8241	-62.0205	0.221772	43.9445	-34.6709	-36.1809	24.0008	-42.1649	-10.5178	44.2993	-21.5703	3.36163	52.716	-51.1502	-28.9867	34.1044	-54.5299	0.635052	56.5643	-29.3135	16.9075	63.1904	-62.9333	-10.0804	48.572	-57.7111	17.4063	67.0746	-29.9054	26.9321	71.2576	-70.5559	3.34744	59.8559	-56.1073	25.6836	76.7972	-35.0313	35.8575	110.529	-28.6693	-5.60528	121.812	-11.9975	15.2972	97.4369	1.84833	-5.67658	
112	0.933333	63.4657	15.1323	10.6153	32.8879	-2.54707	5.36166	19.983	-29.8924	-1.76996	26.4374	-57.1277	0.604334	40.0849	-29.3105	-36.3281	19.86	-32.5317	-12.7083	43.4419	-15.7553	2.41353	47.8006	-51.7708	-26.0729	28.8181	-44.7484	0.751456	57.9433	-20.2093	14.5567	60.286	-58.5249	-11.1044	44.7229	-51.449	16.5205	64.8221	-25.2337	24.7257	71.2884	-66.0558	1.85989	56.6603	-50.7128	22.0983	74.985	-32.3311	31.0756	108.035	-32.5738	-10.0736	122.859	-12.7622	15.419	100.101	4.77912	-6.35995	
113	0.941667	68.4182	20.6049	11.0871	36.6497	2.82815	1.47037	17.6944	-22.3192	-4.04102	22.2466	-49.2919	-1.07445	39.2362	-24.0222	-36.7899	20.6089	-26.0252	-13.5527	46.5447	-9.1043	0.340035	50.1551	-45.4068	-27.7348	26.9572	-37.4085	-0.900903	55.6289	-20.3003	13.8156	57.693	-53.6823	-13.6183	41.2926	-44.3813	13.1108	64.2669	-24.742	25.2475	64.0358	-62.787	1.39415	54.2901	-50.6504	23.5496	75.7644	-30.595	31.8205	107.905	-28.8128	-10.0903	124.993	-18.5444	12.8862	100.635	4.25903	-10.1499	
114	0.95	74.8015	19.6445	6.29963	40.8152	13.8983	2.58386	19.8839	-9.24876	-4.19434	23.2099	-36.4794	-0.930444	40.8535	-16.6712	-40.7033	21.7459	-15.5892	-15.8746	53.1911	-4.59845	-1.78978	44.1473	-35.3751	-31.499	26.5443	-33.1517	-6.12212	59.6736	-9.95386	11.3832	55.2837	-50.9357	-14.6321	40.101	-37.4095	12.1705	65.7075	-18.0837	21.4554	58.5554	-56.2172	-2.07426	50.9676	-41.8392	18.5595	77.7902	-27.0572	27.9493	105.191	-33.7618	-13.4739	126.299	-21.2756	14.7004	106.288	1.27771	-11.9452	
115	0.958333	83.4323	22.6409	7.61752	49.1307	17.4402	-2.96233	24.2325	-2.34114	-8.0556	27.9518	-29.02	-3.51224	41.9647	-10.3585	-43.1434	21.0615	-7.57982	-20.2216	50.4463	4.70362	-1.03802	44.5423	-33.1081	-32.2618	25.9038	-27.5912	-7.52117	58.9533	-7.39724	11.655	48.3221	-41.8302	-17.2523	36.9111	-35.1669	7.9963	64.8175	-16.8393	19.4674	57.779	-55.304	-3.29399	50.8156	-38.9304	20.815	74.3273	-26.1377	25.9811	106.012	-34.9885	-12.4032	126.587	-22.7896	11.2611	108.628	4.56233	-11.7474	
116	0.966667	93.4468	22.5743	3.50993	65.7027	26.5057	-13.9108	46.8681	-2.66395	-22.1881	45.2453	-22.671	-11.3312	43.7618	-7.19664	-40.9733	21.0534	-2.04251	-17.8863	40.5429	9.07655	5.45231	41.8022	-28.0329	-32.9318	22.808	-17.1531	-8.80709	54.2568	-8.40458	15.8562	45.9753	-39.02	-15.6992	36.6684	-28.1661	8.98448	68.9238	-16.8603	20.6587	55.3876	-49.7142	-3.80119	49.9044	-34.5988	22.2444	79.4529	-27.9265	27.0171	106.81	-34.2946	-14.6829	127.782	-31.012	10.3617	112.804	-0.213555	-14.64	
117	0.975	101.206	22.638	2.36483	75.8066	27.7656	-20.2855	56.9053	0.682923	-25.2765	53.2034	-19.5223	-12.0438	50.8728	-4.84708	-42.4436	25.5658	6.17605	-23.8459	42.1418	13.229	3.94184	43.3382	-23.1416	-33.6888	26.5662	-12.9103	-6.77017	58.3062	-6.23825	17.0036	48.6752	-32.2183	-16.5696	40.5378	-18.6937	11.3512	71.549	-15.6114	19.8883	49.8457	-45.6711	-1.34136	50.7021	-31.9279	22.1335	79.7969	-27.6335	27.3167	106.491	-38.507	-11.8186	124.355	-31.3522	8.31884	116.974	-7.40323	-10.9596	
118	0.983333	109.478	18.709	3.89031	85.7545	31.1867	-19.7412	61.9985	12.2251	-26.3932	49.4717	-14.3584	-14.9707	56.7029	1.35113	-45.9097	33.3103	13.486	-26.2855	54.3242	15.4448	2.05437	47.5843	-15.908	-35.3015	32.1217	-0.933565	-9.4095	62.5848	-1.55305	14.2561	50.256	-32.318	-15.0942	44.2361	-15.4644	12.9575	75.2468	-14.7929	21.2228	50.0485	-40.3274	-1.32367	53.7524	-25.0833	23.1152	82.4078	-26.4211	25.9312	104.08	-44.7621	-13.0785	124.114	-39.7171	10.6321	119.193	-9.29298	-14.2408	
119	0.991667	115.272	16.0401	2.68116	89.1483	36.1354	-16.5233	59.6524	31.5132	-26.7536	41.6818	8.21195	-19.1655	63.9558	5.5843	-48.2089	48.8429	18.9567	-23.8337	73.6321	11.1167	-5.05411	54.2978	-16.2268	-38.2801	39.1101	2.40489	-15.7798	70.1172	0.162237	9.62189	52.652	-27.086	-19.2209	48.0662	-7.94455	6.181	82.0066	-14.1594	17.4556	52.4663	-36.139	-4.03707	55.3017	-21.2872	20.158	81.8317	-25.8947	24.0927	106.19	-48.959	-8.90458	123.746	-46.4597	16.0126	124.214	-20.1917	-13.2742	
120	1	122.763	12.9769	-1.25935	98.2407	28.9193	-16.6042	70.0024	31.9076	-27.124	49.8281	14.1449	-23.8276	75.5164	1.37887	-50.3871	61.2624	19.7252	-25.8619	88.9061	8.97976	-10.5408	57.8462	-11.5972	-40.3639	49.9034	8.48696	-19.0331	82.1423	-2.76382	4.30521	55.5387	-18.5224	-23.4989	55.1593	-2.38503	3.33726	82.5014	-13.953	15.7314	55.9394	-32.7902	-7.65843	55.019	-14.9966	13.3175	86.6968	-26.8408	21.909	102.015	-52.6109	-10.9071	120.113	-51.0727	17.3638	130.933	-23.1558	-9.05517	
121	1.00833	130.726	8.54498	0.390343	107.162	26.077	-18.8627	80.7865	31.447	-31.9277	55.2603	21.3727	-30.0469	82.4076	-1.0035	-51.2199	70.3235	20.4115	-30.4556	91.2031	5.73397	-13.7038	67.9979	-13.3013	-42.4218	60.265	13.6848	-21.8751	87.3669	-4.9207	2.23945	56.7322	-19.0406	-24.0783	56.2805	-2.25202	0.369264	85.216	-14.4028	12.4304	53.2555	-26.8535	-9.85575	59.208	-10.5365	12.8531	84.5898	-27.1873	21.2181	103.057	-53.1325	-6.63916	117.123	-55.0489	18.0222	132.019	-31.8951	-8.81534	
122	1.01667	132.488	-0.140374	1.99476	118.092	22.7522	-17.5114	90.7731	33.384	-34.3514	64.5191	21.5208	-32.7828	91.3077	-4.54979	-53.7773	78.5484	21.1175	-36.1569	102.261	5.32825	-18.2373	71.9847	-13.1037	-45.9708	64.4552	13.6178	-27.9719	90.7249	-0.0562787	-2.80357	61.0352	-20.7716	-27.223	57.549	0.756318	-5.71138	87.3031	-13.7812	9.24085	54.8641	-30.0746	-11.3925	60.7821	-6.77832	7.04267	83.3777	-20.6654	16.7169	101.016	-57.1706	-3.35682	117.383	-59.6106	20.2857	134.038	-35.204	-6.6859	
